<svg width="13" height="12" viewBox="0 0 13 12" fill="none" xmlns="http://www.w3.org/2000/svg">
<path d="M12.8228 6C12.8228 6.19096 12.7469 6.37409 12.6119 6.50912C12.4768 6.64414 12.2937 6.72 12.1028 6.72H7.54275V11.28C7.54275 11.471 7.4669 11.6541 7.33187 11.7891C7.19684 11.9241 7.01371 12 6.82275 12C6.6318 12 6.44866 11.9241 6.31364 11.7891C6.17861 11.6541 6.10275 11.471 6.10275 11.28V6.72H1.54275C1.3518 6.72 1.16866 6.64414 1.03364 6.50912C0.898611 6.37409 0.822754 6.19096 0.822754 6C0.822754 5.80904 0.898611 5.62591 1.03364 5.49088C1.16866 5.35586 1.3518 5.28 1.54275 5.28H6.10275V0.72C6.10275 0.529044 6.17861 0.345909 6.31364 0.210883C6.44866 0.0758569 6.6318 0 6.82275 0C7.01371 0 7.19684 0.0758569 7.33187 0.210883C7.4669 0.345909 7.54275 0.529044 7.54275 0.72V5.28H12.1028C12.2937 5.28 12.4768 5.35586 12.6119 5.49088C12.7469 5.62591 12.8228 5.80904 12.8228 6Z" fill="white"/>
</svg>
